<svg width="512" height="512" viewBox="0 0 512 512" xmlns="http://www.w3.org/2000/svg">
  <!-- Background -->
  <rect width="512" height="512" fill="#000000"/>

  <!-- Outer circle rings (cymatics pattern) -->
  <circle cx="256" cy="256" r="220" fill="none" stroke="#00ffff" stroke-width="3" opacity="0.8"/>
  <circle cx="256" cy="256" r="190" fill="none" stroke="#ff00ff" stroke-width="3" opacity="0.7"/>
  <circle cx="256" cy="256" r="160" fill="none" stroke="#ffff00" stroke-width="3" opacity="0.6"/>
  <circle cx="256" cy="256" r="130" fill="none" stroke="#00ff00" stroke-width="3" opacity="0.5"/>
  <circle cx="256" cy="256" r="100" fill="none" stroke="#ff6600" stroke-width="3" opacity="0.4"/>

  <!-- Center waveform pattern -->
  <path d="M 156 256 Q 181 206, 206 256 T 256 256 T 306 256 T 356 256"
        fill="none" stroke="#ffffff" stroke-width="4" opacity="0.9"/>

  <!-- Symmetrical waveform -->
  <path d="M 156 256 Q 181 306, 206 256 T 256 256 T 306 256 T 356 256"
        fill="none" stroke="#ffffff" stroke-width="4" opacity="0.9"/>

  <!-- Radial lines (sound waves) -->
  <line x1="256" y1="256" x2="256" y2="36" stroke="#00ffff" stroke-width="2" opacity="0.5"/>
  <line x1="256" y1="256" x2="476" y2="256" stroke="#ff00ff" stroke-width="2" opacity="0.5"/>
  <line x1="256" y1="256" x2="256" y2="476" stroke="#ffff00" stroke-width="2" opacity="0.5"/>
  <line x1="256" y1="256" x2="36" y2="256" stroke="#00ff00" stroke-width="2" opacity="0.5"/>

  <!-- Diagonal lines -->
  <line x1="256" y1="256" x2="411" y2="101" stroke="#ff6600" stroke-width="2" opacity="0.4"/>
  <line x1="256" y1="256" x2="411" y2="411" stroke="#ff0066" stroke-width="2" opacity="0.4"/>
  <line x1="256" y1="256" x2="101" y2="411" stroke="#6600ff" stroke-width="2" opacity="0.4"/>
  <line x1="256" y1="256" x2="101" y2="101" stroke="#00ffff" stroke-width="2" opacity="0.4"/>

  <!-- Center glow circle -->
  <circle cx="256" cy="256" r="70" fill="none" stroke="#ffffff" stroke-width="4" opacity="0.9"/>
  <circle cx="256" cy="256" r="65" fill="none" stroke="#ffffff" stroke-width="2" opacity="0.6"/>
  <circle cx="256" cy="256" r="60" fill="none" stroke="#ffffff" stroke-width="1" opacity="0.3"/>

  <!-- Center dot -->
  <circle cx="256" cy="256" r="8" fill="#ffffff" opacity="1"/>
</svg>
